<?xml version="1.0" standalone="no"?><!DOCTYPE svg PUBLIC "-//W3C//DTD SVG 1.1//EN" "http://www.w3.org/Graphics/SVG/1.1/DTD/svg11.dtd"><svg t="1610247063625" class="icon" viewBox="0 0 1024 1024" version="1.1" xmlns="http://www.w3.org/2000/svg" p-id="4216" xmlns:xlink="http://www.w3.org/1999/xlink" width="200" height="200"><defs><style type="text/css"></style></defs><path d="M512 0C230.4 0 0 230.4 0 512s230.4 512 512 512 512-230.4 512-512-230.4-512-512-512z m0 960c-249.6 0-448-198.4-448-448s198.4-448 448-448 448 198.4 448 448-198.4 448-448 448z" fill="#1CC7E1" p-id="4217"></path><path d="M736 480h-192v-192c0-19.2-12.8-32-32-32s-32 12.8-32 32v192h-192c-19.2 0-32 12.8-32 32s12.8 32 32 32h192v192c0 19.2 12.8 32 32 32s32-12.8 32-32v-192h192c19.2 0 32-12.8 32-32s-12.8-32-32-32z" fill="#1CC7E1" p-id="4218"></path></svg>