<?xml version="1.0" standalone="no"?><!DOCTYPE svg PUBLIC "-//W3C//DTD SVG 1.1//EN" "http://www.w3.org/Graphics/SVG/1.1/DTD/svg11.dtd"><svg t="1610244276363" class="icon" viewBox="0 0 1024 1024" version="1.1" xmlns="http://www.w3.org/2000/svg" p-id="5660" xmlns:xlink="http://www.w3.org/1999/xlink" width="200" height="200"><defs><style type="text/css"></style></defs><path d="M868.032 545.472L536.128 163.008a32 32 0 0 0-48.32 0L156.032 545.472a7.936 7.936 0 0 0 5.952 13.248h81.024c4.608 0 8.96-2.048 12.096-5.504l218.88-252.288V864c0 4.416 3.648 8 8 8h60.032a8 8 0 0 0 8-8V300.928l218.88 252.288a15.872 15.872 0 0 0 12.16 5.504h80.96a7.936 7.936 0 0 0 6.016-13.248z" fill="#000000" opacity=".65" p-id="5661"></path></svg>