<?xml version="1.0" standalone="no"?><!DOCTYPE svg PUBLIC "-//W3C//DTD SVG 1.1//EN" "http://www.w3.org/Graphics/SVG/1.1/DTD/svg11.dtd"><svg t="1610244337406" class="icon" viewBox="0 0 1024 1024" version="1.1" xmlns="http://www.w3.org/2000/svg" p-id="1358" xmlns:xlink="http://www.w3.org/1999/xlink" width="200" height="200"><defs><style type="text/css"></style></defs><path d="M862.016 465.28h-81.024a16.192 16.192 0 0 0-12.096 5.504l-218.88 252.288V160a8 8 0 0 0-8-8H481.92a8 8 0 0 0-8 8v563.072l-218.88-252.288a15.872 15.872 0 0 0-12.16-5.504H162.048a8 8 0 0 0-6.016 13.248l331.904 382.464a32 32 0 0 0 48.32 0l331.776-382.464a7.936 7.936 0 0 0-5.952-13.248z" fill="#000000" opacity=".65" p-id="1359"></path></svg>