<?xml version="1.0" standalone="no"?><!DOCTYPE svg PUBLIC "-//W3C//DTD SVG 1.1//EN" "http://www.w3.org/Graphics/SVG/1.1/DTD/svg11.dtd"><svg t="1610530417068" class="icon" viewBox="0 0 1024 1024" version="1.1" xmlns="http://www.w3.org/2000/svg" p-id="7739" xmlns:xlink="http://www.w3.org/1999/xlink" width="200" height="200"><defs><style type="text/css"></style></defs><path d="M422.4 409.6H211.2c-12.8 0-25.6-12.8-25.6-25.6s12.8-25.6 25.6-25.6h211.2c12.8 0 25.6 12.8 25.6 25.6 6.4 12.8-6.4 25.6-25.6 25.6zM512 556.8H211.2c-12.8 0-25.6-12.8-25.6-25.6s12.8-25.6 25.6-25.6H512c12.8 0 25.6 12.8 25.6 25.6s-12.8 25.6-25.6 25.6zM569.6 678.4H211.2c-12.8 0-25.6-12.8-25.6-25.6s12.8-25.6 25.6-25.6h358.4c12.8 0 25.6 12.8 25.6 25.6s-12.8 25.6-25.6 25.6zM569.6 806.4H211.2c-12.8 0-25.6-12.8-25.6-25.6s12.8-25.6 25.6-25.6h358.4c12.8 0 25.6 12.8 25.6 25.6s-12.8 25.6-25.6 25.6z" fill="#8A8A8A" p-id="7740"></path><path d="M646.4 953.6H179.2c-44.8 0-83.2-32-83.2-76.8V294.4c0-44.8 38.4-76.8 83.2-76.8h320c6.4 0 12.8 0 19.2 6.4l211.2 204.8c6.4 6.4 6.4 12.8 6.4 19.2v428.8c-6.4 44.8-38.4 76.8-89.6 76.8zM179.2 268.8c-12.8 0-25.6 6.4-25.6 19.2v588.8c0 12.8 12.8 19.2 25.6 19.2h473.6c12.8 0 25.6-6.4 25.6-19.2V460.8l-192-185.6H179.2z" fill="#8A8A8A" p-id="7741"></path><path d="M697.6 480H556.8c-44.8 0-83.2-38.4-83.2-83.2V249.6c0-12.8 12.8-25.6 25.6-25.6s25.6 12.8 25.6 25.6v147.2c0 12.8 12.8 25.6 25.6 25.6h140.8c12.8 0 25.6 12.8 25.6 25.6s-6.4 32-19.2 32z" fill="#8A8A8A" p-id="7742"></path><path d="M844.8 825.6h-89.6V768h89.6c12.8 0 25.6-12.8 25.6-19.2V320l-192-192H377.6c-19.2 0-32 6.4-32 19.2V192h-51.2v-38.4c0-51.2 38.4-83.2 83.2-83.2h320c6.4 0 12.8 0 19.2 6.4l211.2 211.2c6.4 6.4 6.4 12.8 6.4 19.2v441.6c-6.4 38.4-38.4 76.8-89.6 76.8z" fill="#8A8A8A" p-id="7743"></path><path d="M896 339.2h-140.8c-44.8 0-83.2-38.4-83.2-83.2V108.8c0-12.8 12.8-25.6 25.6-25.6s25.6 12.8 25.6 25.6V256c0 12.8 12.8 25.6 25.6 25.6H896c12.8 0 25.6 12.8 25.6 25.6 0 19.2-12.8 32-25.6 32z" fill="#8A8A8A" p-id="7744"></path></svg>