<?xml version="1.0" standalone="no"?><!DOCTYPE svg PUBLIC "-//W3C//DTD SVG 1.1//EN" "http://www.w3.org/Graphics/SVG/1.1/DTD/svg11.dtd"><svg t="1610246302126" class="icon" viewBox="0 0 1024 1024" version="1.1" xmlns="http://www.w3.org/2000/svg" p-id="3413" xmlns:xlink="http://www.w3.org/1999/xlink" width="200" height="200"><defs><style type="text/css"></style></defs><path d="M654.214953 824.891101v104.276175c0 3.470184-7.736803 9.500339-20.309108 9.500339H390.082777c-12.515416 0-20.309108-6.030155-20.309108-9.500339V824.891101h-56.888257v104.276175c0 38.456462 35.89649 66.388596 77.197365 66.388596h243.823068c41.300874 0 77.197364-27.875246 77.197365-66.388596V824.891101h-56.888257z" fill="#FBB351" p-id="3414"></path><path d="M511.994311 881.779358a511.994311 511.994311 0 0 0 511.994311-511.994311 28.444128 28.444128 0 0 0-28.444128-28.444129H28.444128a28.444128 28.444128 0 0 0-28.444128 28.444129 511.994311 511.994311 0 0 0 511.994311 511.994311zM966.247042 398.229175a455.106054 455.106054 0 0 1-908.505461 0h908.505461z" fill="#FBB351" p-id="3415"></path><path d="M851.503428 183.646671c9.841668 4.095954 19.342007 9.102121 27.875246 14.563393 42.666193 26.908145 71.337874 71.451651 85.958156 129.136343L983.313519 398.229175H37.944467l21.21932-72.816968c11.377651-39.025344 30.435217-73.784069 57.11581-101.261098 36.180931-37.261808 81.975978-56.546927 136.645593-58.196686C277.785358 95.356096 368.522128 6.837968 489.239008 0.409595c130.330996-6.826591 237.736025 72.589416 267.659249 168.559905 30.435217-2.27553 62.577082 1.365318 94.605171 14.677171zM157.068477 263.802224C136.361152 285.021544 122.309752 312.271019 113.776514 341.340918h796.435595c-11.320763-44.600393-32.028089-76.571594-61.211765-95.003388-48.013689-31.060988-104.503728-18.431795-105.413939-18.431796a28.38724 28.38724 0 0 1-23.551739-3.868401 33.507183 33.507183 0 0 1-13.141187-20.365996c-11.377651-63.032189-86.640815-153.200076-214.696281-146.430373-146.828591 7.793691-189.210342 143.529072-189.210342 144.496172a30.605882 30.605882 0 0 1-30.150776 21.333097c-48.923901-2.901301-86.583927 10.638104-115.767603 40.731991z" fill="#FBB351" p-id="3416"></path></svg>