<?xml version="1.0" standalone="no"?><!DOCTYPE svg PUBLIC "-//W3C//DTD SVG 1.1//EN" "http://www.w3.org/Graphics/SVG/1.1/DTD/svg11.dtd"><svg t="1610241325661" class="icon" viewBox="0 0 1024 1024" version="1.1" xmlns="http://www.w3.org/2000/svg" p-id="8031" xmlns:xlink="http://www.w3.org/1999/xlink" width="200" height="200"><defs><style type="text/css"></style></defs><path d="M473.6 283.569231L142.769231 645.907692v252.061539c0 23.630769 23.630769 47.261538 55.138461 47.261538h212.676923v-157.538461c0-31.507692 23.630769-55.138462 55.138462-55.138462h102.4c31.507692 0 55.138462 23.630769 55.138461 55.138462v157.538461h212.676924c31.507692 0 55.138462-23.630769 55.138461-55.138461V638.030769L544.492308 283.569231c-15.753846-23.630769-47.261538-23.630769-70.892308 0" fill="#FAE4E2" p-id="8032"></path><path d="M512.984615 228.430769c-23.630769 0-47.261538 7.876923-63.015384 23.630769L103.384615 630.153846v267.815385c0 23.630769 7.876923 47.261538 23.63077 63.015384 15.753846 15.753846 39.384615 23.630769 63.015384 23.63077h252.061539V787.692308c0-7.876923 7.876923-15.753846 15.753846-15.753846h102.4c7.876923 0 15.753846 7.876923 15.753846 15.753846v196.923077H828.061538c47.261538 0 94.523077-39.384615 94.523077-94.523077V630.153846L576 252.061538c-15.753846-15.753846-39.384615-23.630769-63.015385-23.630769z m330.83077 669.538462c0 7.876923-7.876923 15.753846-15.753847 15.753846H654.769231v-118.153846c0-47.261538-39.384615-94.523077-94.523077-94.523077H457.846154c-47.261538 0-94.523077 39.384615-94.523077 94.523077v118.153846H190.030769h-7.876923V669.538462L505.107692 315.076923h15.753846l322.953847 346.584615v236.307693z" fill="#F95146" p-id="8033"></path><path d="M969.846154 480.492308L583.876923 31.507692c-39.384615-47.261538-102.4-47.261538-141.784615 0l-393.846154 433.23077c-15.753846 23.630769-15.753846 55.138462 0 78.76923l7.876923 7.876923c23.630769 23.630769 55.138462 23.630769 70.892308 0l346.584615-378.092307c23.630769-23.630769 47.261538-23.630769 70.892308 0l346.584615 393.846154c15.753846 23.630769 47.261538 23.630769 70.892308 0l7.876923-7.876924c23.630769-23.630769 23.630769-55.138462 0-78.76923z" fill="#F95146" p-id="8034"></path></svg>