<?xml version="1.0" standalone="no"?><!DOCTYPE svg PUBLIC "-//W3C//DTD SVG 1.1//EN" "http://www.w3.org/Graphics/SVG/1.1/DTD/svg11.dtd"><svg t="1610420484468" class="icon" viewBox="0 0 1024 1024" version="1.1" xmlns="http://www.w3.org/2000/svg" p-id="1792" xmlns:xlink="http://www.w3.org/1999/xlink" width="200" height="200"><defs><style type="text/css"></style></defs><path d="M7.314286 482.742857c0-7.314286 7.314286-7.314286 7.314285-14.628571-7.314286 7.314286-7.314286 14.628571-7.314285 14.628571zM950.857143 438.857143H241.371429l-65.828572 73.142857 73.142857 73.142857H950.857143c43.885714 0 73.142857-29.257143 73.142857-73.142857s-29.257143-73.142857-73.142857-73.142857zM21.942857 563.2c-7.314286-7.314286-14.628571-14.628571-14.628571-21.942857 0 7.314286 7.314286 14.628571 14.628571 21.942857zM0 512v-7.314286 7.314286z" fill="#9EA0AE" p-id="1793"></path><path d="M241.371429 438.857143l292.571428-314.514286c29.257143-29.257143 21.942857-73.142857-7.314286-102.4-29.257143-29.257143-73.142857-21.942857-102.4 7.314286l-402.285714 438.857143-7.314286 7.314285c0 7.314286-7.314286 7.314286-7.314285 14.628572-7.314286 0-7.314286 7.314286-7.314286 14.628571V512c0 7.314286 0 21.942857 7.314286 29.257143 0 7.314286 7.314286 14.628571 14.628571 21.942857l438.857143 438.857143c29.257143 29.257143 73.142857 29.257143 102.4 0 29.257143-29.257143 29.257143-73.142857 0-102.4L248.685714 585.142857l-73.142857-73.142857 65.828572-73.142857z" fill="#9EA0AE" p-id="1794"></path></svg>