<?xml version="1.0" standalone="no"?><!DOCTYPE svg PUBLIC "-//W3C//DTD SVG 1.1//EN" "http://www.w3.org/Graphics/SVG/1.1/DTD/svg11.dtd"><svg t="1610267798175" class="icon" viewBox="0 0 1024 1024" version="1.1" xmlns="http://www.w3.org/2000/svg" p-id="8619" xmlns:xlink="http://www.w3.org/1999/xlink" width="200" height="200"><defs><style type="text/css"></style></defs><path d="M770.916 522.054c-17.597 0-30.163 15.084-30.163 30.163v274h-100.55v-306.675c0-10.054-7.54-20.11-17.597-20.11h-213.669c-10.054 0-20.11 7.54-20.11 20.11v306.675h-100.55v-274c0-17.597-15.084-30.163-30.163-30.163-17.597 0-30.163 15.084-30.163 30.163v304.163c0 17.597 12.567 32.679 30.163 32.679h512.804c17.597 0 30.163-15.084 30.163-32.679v-304.163c0-15.084-12.567-30.163-30.163-30.163zM602.494 826.217h-175.962v-289.081h175.962v289.081z" fill="#333333" p-id="8620"></path><path d="M909.171 517.028l-372.034-372.034c-12.567-12.567-32.679-12.567-45.248 0l-372.034 372.034c-12.567 12.567-12.567 32.679 0 42.733 12.567 12.567 32.679 12.567 45.248 0l351.925-351.925 351.925 351.925c12.567 12.567 32.679 12.567 45.248 0 7.54-10.054 7.54-30.163-5.028-42.733z" fill="#333333" p-id="8621"></path></svg>