<?xml version="1.0" standalone="no"?><!DOCTYPE svg PUBLIC "-//W3C//DTD SVG 1.1//EN" "http://www.w3.org/Graphics/SVG/1.1/DTD/svg11.dtd"><svg t="1610241430129" class="icon" viewBox="0 0 1024 1024" version="1.1" xmlns="http://www.w3.org/2000/svg" p-id="9144" xmlns:xlink="http://www.w3.org/1999/xlink" width="200" height="200"><defs><style type="text/css"></style></defs><path d="M650 199H394.25l-60.89-90.82a51.3 51.3 0 0 1 30.93-78.52l115.33-27a52.91 52.91 0 0 1 7.89-1.22 333.67 333.67 0 0 1 49.89 0 52.12 52.12 0 0 1 6.93 1l131 27.89a51.31 51.31 0 0 1 32.6 77.73z m-230.15-48h203.84l43.71-68.69a3.11 3.11 0 0 0 0.26-3 3.14 3.14 0 0 0-2.36-2l-131-27.89a5.25 5.25 0 0 0-0.52-0.08 287.08 287.08 0 0 0-42.7 0 4.93 4.93 0 0 0-0.57 0.1l-115.32 27a3.12 3.12 0 0 0-2.32 2 3.09 3.09 0 0 0 0.33 3z" fill="#3D3D3D" p-id="9145"></path><path d="M487.29 783.38a438.06 438.06 0 0 0 3.54-57.15v-30.12H424c-19.94 0-31.46 0.89-46.52 3.55v-50.5c15.51 2.66 26.14 3.54 46.52 3.54h66.88v-13.29l-14.61-22.59h-51.44c-20.38 0-31.45 0.89-46.51 3.54v-50.5c14.62 2.66 26.13 3.55 46.51 3.55h24.81L388.06 476c-12.84-19.93-24.36-37.21-31-45.62h76.19c4 12.84 8.86 22.59 21.26 43.41l65.56 112.51 65.56-112.07c12.41-20.82 17.72-31.89 21.26-43.85h76.64c-5.76 7.53-23.48 32.78-31.45 45.62L591 573.41h24.8c19.94 0 31.9-0.89 46.52-3.55v50.5c-15.06-2.65-27-3.54-46.52-3.54h-51.87l-14.62 23v12.88h65.56c19.93 0 31-0.88 46.51-3.54v50.5c-15.06-2.66-27-3.55-46.51-3.55h-65.56v30.12c0 25.25 0.88 39.43 3.54 57.15z" fill="" p-id="9146"></path><path d="M612.74 987H416.26A323.84 323.84 0 0 1 92.43 663.13V641.5A416.18 416.18 0 0 1 508.93 225h11.14a416.17 416.17 0 0 1 416.5 416.5v21.63A323.84 323.84 0 0 1 612.74 987zM508.93 273a368.51 368.51 0 0 0-368.5 368.5v21.63A275.83 275.83 0 0 0 416.26 939h196.48a275.83 275.83 0 0 0 275.83-275.87V641.5A368.51 368.51 0 0 0 520.07 273z" fill="#3D3D3D" p-id="9147"></path></svg>